<svg xmlns="http://www.w3.org/2000/svg" viewBox="0 0 2404 2404"><path d="M37 1528V652l154-154V-1h2176v2000l-443 442H37zm2127 621 190-190V65H204v436L50 655v1683h1923zM63 2270v-56h140v112H63zm109 0v-53H66v106h106zm37 0v-56h7v112h-7zm11 0v-56h7v112h-7zm35 0v-56h133v112H255zm138 0v-56h159v112H393zm163 0v-56h26v112h-26zm33 0v-56h56v112h-56zm111 0v-56h50v112h-50zm72 0v-56h6v112h-6zm10 0v-56h40v112h-40zm44 0v-56h24v112h-24z"/><path d="M250 200h550v60H250v-60m150 100h400v60H400v-60m1200 1300h700v60h-700v-60m0 100h600v60h-600v-60"><animate attributeName="opacity" values=".4; 0; 0; .4;" keyTimes="0; 0.2; 0.8; 1" repeatCount="indefinite" dur=".5s"/></path><path d="M61 2215h110v110H61v-110"><animate attributeName="opacity" values=".4; 0; 0; .4;" keyTimes="0; 0.2; 0.8; 1" begin=".2s" repeatCount="indefinite" dur=".6s"/></path></svg>