<svg xmlns="http://www.w3.org/2000/svg" viewBox="0 0 1000 1000" xml:space="preserve"><path d="m369 788-50 49c-43 42-113 42-156 0a107 107 0 0 1 0-154l183-181c38-37 109-92 161-41a61 61 0 0 0 86-86c-89-88-219-71-332 41L78 597a228 228 0 0 0 0 326 231 231 0 0 0 327 0l49-49a61 61 0 0 0-85-86zM922 84c-95-94-227-99-315-12l-62 61a61 61 0 0 0 86 87l62-62c45-45 105-26 144 12a107 107 0 0 1 0 154L642 517c-89 88-131 47-149 29a61 61 0 0 0-85 86c40 41 87 61 136 61 60 0 123-30 183-90l195-193a228 228 0 0 0 0-326z"/></svg>