<svg width="95" height="95" xmlns="http://www.w3.org/2000/svg"><path d="M25 95c-.8-1.2-1.7-4.3-1.9-6.3-.3-3.7 1.1-8 3.5-11l1.2-1.3-1.2-3c-1.5-3.8-3.1-8.5-4-12-.6-2.3-1-3-2-4.5a46 46 0 0 1-9.7-24c-.6-11 5-21 14-24 3.3-1.3 5.4-1.6 9.4-1.5h3.6l2.2-1a26 26 0 0 1 11-2.3c2.8 0 4.1 0 5.4.4 4.1 1.1 7.8 3.8 9.9 7 1 1.5 1.1 1.6 1.8 1.4l2.3-.1H72l1.1 3.3h1.4c1.8 0 3.8.4 5.6 1.2l1.4.6 1-.9c2.7-2.4 6.4-4.7 7.7-4.7.4 0 1 .3 1.3.6.5.5.5.7.4 2.2-.2 2-.9 4-2.8 8l-1.6 3.4.4 1.2.7 2.7c.4 1.9.6 8.5.3 9-.2.2-1.1.4-3.5.5-2.8 0-3.2.1-3 .5l.8 2.8c.6 2.2.7 2.8.7 7.4 0 4.6 0 5.2-.7 7.5-1.8 6.3-1.8 6.7-1.6 7.5.2.7.4.9 1.4 1.1 1.8.5 2.3.8 2.6 1.8.4 1.3-.2 3-1.7 5-4.3 5.4-12 8.6-21 8.2-1.6 0-3.1-.2-3.4-.3-.6-.2-.6.6 0 3.3A151.6 151.6 0 0 1 61 95.2l.2.6h-37z"/><path d="M62.9 36.2q0 2.5-.8 4.4-.7 1.9-2 3.4-1.3 1.4-3.1 2.5-1.8 1-4.2 2V54h-8.6v-8.4q1.8-.4 3.2-1 1.4-.4 2.8-1.5 1.5-1 2.3-2.3.8-1.3.8-2.8 0-2.5-1.6-3.4-1.6-1-4.4-1-1.8 0-4 .7-2.1.8-3.8 2h-1v-7.6q1.6-.6 4.7-1.3 3.1-.8 6.5-.8 6 0 9.6 2.6t3.6 7zm-9.4 27.3h-9.9V57h9.9z" fill="#fff"/></svg>