<svg xmlns="http://www.w3.org/2000/svg" viewBox="0 0 260 260"><path d="M210.86 197.54a5 5 0 0 0-5.12.23c-11.62 7.64-23.4 11.5-35.02 11.5-6.24 0-11.6-1.39-16.41-4.27-3.27-1.93-6.31-5.32-7.4-8.26-1.06-2.8-1.05-10.33-1.03-20.75v-63.54h52.8a5 5 0 0 0 5-5V62.8a5 5 0 0 0-5-5h-52.8V5a5 5 0 0 0-5-5h-35.56a5 5 0 0 0-4.97 4.4c-1.48 12.23-4.25 22.38-8.24 30.2a63.66 63.66 0 0 1-15.65 19.92c-5.2 4.44-14.12 8.73-26.5 12.77a5 5 0 0 0-3.44 4.75v35.41a5 5 0 0 0 5 5h28.95v82.67c0 12.18 1.3 21.34 3.95 28.02 2.71 6.79 7.52 13.18 14.3 19 6.68 5.71 14.8 10.18 24.16 13.3 9.09 2.96 16.32 4.56 28.51 4.56 10.31 0 20.14-1.07 29.22-3.18 8.92-2.08 19.01-5.76 30-10.93a5 5 0 0 0 2.88-4.53v-39.41a5 5 0 0 0-2.63-4.4z"/></svg>