<svg xmlns="http://www.w3.org/2000/svg" viewBox="0 0 400 400"><path d="M122.6 403.6c-1.4-21.9-6-54.9 2-80.3-1.8-45.7 37.7-55.2 67.4-58.9 19.6-2.4 37.6-1.7 59.2.5 26.9 2.8 59.9 17.7 61.3 49 36.3-11 111.6-9 77.9 90.4-46.6.7-217.2.5-267.8-.8z" fill="#f1c6f7"/><path d="m166.9 365.5-.5 17.5 38.3 9.9.7-18.8z" fill="#f7edd1"/><path d="M142.8 303.6c4.6-34 49.3-28.2 76.2-27 29.4 1.3 80.9 7.2 80.4 36.6-.4 28.5-50.3 34.6-78.7 33.2-29.6-1.5-80.4-13.3-78-42.8z" fill="#901c49"/><path d="M206 266c.8 14-3 35.3 0 46.8 4.8 5.2 15.5 6.6 20.9 2.2 11.9-9.8-2.1-32.1 4.7-46 14.7-2.3 23.8-11.7 24-22.8.3-9.1-9.5-19.2-18.6-20-6.4-.5-15 6.8-15.2 11.9.5-4-11-13-18.2-12.3-9.3.8-20 10.2-20 19.4.2 10.2 11.3 16.5 22.5 20.9z" fill="#f9f9f9"/><path d="M124.6 317.6c5.8 17.8 18.7 24.5 32.4 30 1.7 27.6 1.7 44 1 56.3l-38.7 1.6zM296 403.6c-2.4-23.5 1.7-41.4 3.5-61.4l14.4-19c26.2-8 23.9 51.2 25.7 80.6z" fill="#be92c4"/><path d="M227.4 359.6c-1.4 18.5-.9 34.6-.7 51.1h29.8c.3-22.8 0-41.8-1.8-53.2zM333.5 310.7c45.7 4 22.2 67.1 30.9 96.1l29.4.7c-3-45 20.2-103.2-60.3-96.8z" fill="#f6d5fa"/><path d="M186.3 240.4c10.8 14.8 8.3 15.6 24.3 22.2 2.7 2.8 2.5 39.1 1.4 55l-5.9-4.8V266c-26.4-9.8-20-17.5-19.9-25.6z" fill="#d7cad9"/><path d="m115.9 403.6-.3-5c-1-18.3-.8-27.5 1-52 1-10.3 1.1-13.3 1.4-18.6.5-9.1.8-13.6 1.1-15.1a54.8 54.8 0 0 1 18-31c5.2-4.4 10.6-8 17.3-11.3a125.2 125.2 0 0 1 32.1-10.7l-.7-1a24.2 24.2 0 0 1-5-10.5c-.4-1.7-.4-4.8 0-6.4.9-4.1 3-7.5 6.7-11.3 4.3-4.1 9.7-7 15.3-8.4 2.2-.4 5.4-.6 7.4-.2 5 .7 9.6 3.8 11.8 7.6l.4.6.2-.3c2.2-3.3 6.6-5.6 12.1-6.3h6.8c8.6 1.1 14 5.2 16.2 12.6 1.5 4.4 1.7 9.6.8 14.6-.6 2.9-1.8 6.6-2.9 8.7-.4.8-.5 1 0 1l3.1.7a106 106 0 0 1 31.9 12.4c7.5 4.4 14 9.7 17.6 14.5a39.4 39.4 0 0 1 6.6 20v1.4l1.1-.5c3.4-1.5 7.2-2.5 12.4-3.3 6.3-.9 13.7-1.2 20.8-.9 12.3.6 20.5 2.4 28.4 6.4a39 39 0 0 1 22.5 30l.3 2.1v20.1c0 19.3 0 20.2-.3 22.5a197 197 0 0 1-2.5 16l-.4 2H389.4l.2-1.2a205.5 205.5 0 0 0 3.2-58.5c-.8-6-2.4-10.9-4.8-14.7-2.1-3.4-5.8-7-9.8-9.6-9.4-6-20-8.4-37.1-8.4-10.1 0-17.8 1-23.7 2.9l-2 .6v1.6l.2 6.1a535.9 535.9 0 0 1-1.2 54 359.2 359.2 0 0 0 0 27.1c0 .2-.1.2-2.3.2h-2.4l-.1-.8c-.5-4.8-.6-19.2-.2-27.4a1013.6 1013.6 0 0 0 1.3-45.4l-.5 1.4c-4.4 12-17 20.8-38.1 26a201.4 201.4 0 0 1-63 3.8c-30.4-2.4-52.1-8.4-67.1-18.7a45.6 45.6 0 0 1-16.1-17l-1-2v.5l-.2 3.7c-.1 4.8-.2 5.8-1.6 24.2a335.7 335.7 0 0 0-.4 50.5v1.3h-6.6v-.3zm125-47.9c30.7-1.8 52.9-9.6 60.7-21.4 3.9-5.8 6-10.6 6.8-15.6a32.3 32.3 0 0 0-1.1-16.1c-1-4-2-7-3.7-9.8a15 15 0 0 0-3.2-4 69.3 69.3 0 0 0-18.1-12.6 98.7 98.7 0 0 0-31.8-9.9c-.8.7-2.8 2-3.8 2.4a30.2 30.2 0 0 1-11.1 2.4h-1.9v1.3l.2 2c.1.9.1 1 .5 1 1 0 7.4 1 9.8 1.4 23.1 3.8 38.5 9.9 49 19.3 1.5 1.4 4 4 4.8 5.1a24.7 24.7 0 0 1 2.7 17.4c-.5 3.4-.6 4-1.5 5.7-1.8 4-4.8 7-9.4 9.8-5.5 3.3-15.3 7-26.2 10-6.6 2-11.9 3-17.3 3.8a169.8 169.8 0 0 1-81.8-11.4c-3-1.3-4.2-2-7-3.6-2.5-1.5-4-2.6-4.8-3.7l-1.8-1.6c-5-3.5-8.9-8.8-10.4-13.9-.9-3-1.3-7.3-1-10.6 1-9 5.9-17 13.7-22.2 9-6 21.5-8.3 43.6-8h6.1v-1.5c-.2-2.5-.2-2.8-.6-2.9-2.6-.5-5.4-1.4-7.7-2.6a8 8 0 0 0-1.8-.7l-8.5 1.5c-14 2.9-27.6 8.3-37.3 14.7-7.5 5-12.5 9.9-16.5 16.1a17.9 17.9 0 0 0-3 7.1 29 29 0 0 0-.4 7.7c.6 4.7 2.3 9.6 4.9 13.5a52.7 52.7 0 0 0 19.9 16.3c15.8 8 39.8 12.8 69.5 14 4.3 0 15.7 0 19.7-.3zm-2.5-12c9.6-.7 17.9-2.4 29.7-6a92 92 0 0 0 20.7-8.9c4.5-3 7.3-7.2 8.4-12.5.5-2.5.2-6-.8-8.8-.8-2.5-1.4-3.6-3-5.3-8.2-9.2-22.2-15.5-42.8-19.7a145 145 0 0 0-16.8-2.6 462.8 462.8 0 0 1-.9 17.5c-.2 3-.4 10.2-.3 12.5 0 4.6 0 5-2.1 7.4a11.8 11.8 0 0 1-4 3.2 15.5 15.5 0 0 1-7.7 1.5c-5.3 0-9.4-1.4-12.5-4.2-1.1-1.1-3-3.6-3.3-4.7l-.1-18v-17.6h-.5c-.8-.2-15-.1-18 0a63.3 63.3 0 0 0-25.6 5.3 25.3 25.3 0 0 0-14.5 27.2c.7 4.4 3.2 9.3 6.4 12.7 1.6 1.7 2.7 2.5 6.1 4.7.3.2.7.5.8.8l.4.6a65 65 0 0 0 6.6 3.2c8 3.2 18.1 6.2 28.7 8.3a166.8 166.8 0 0 0 45 3.4zm-16-26.3c1.4-.3 2.4-.7 3.5-1.4l1-.7v-5.9a310.3 310.3 0 0 1 3.2-40.6c.5-.7 1.2-1.1 2-1 .7 0 3-.2 4.5-.6 1.7-.4 3.3-1.1 5.1-2.1 5.3-3 7.6-5.3 9.3-9.4 2-5 2.6-10.8 1.6-15.7-.7-3-1.7-5-3.3-6.7-1.3-1.4-2.5-2.1-4.3-2.8-5.5-2-13.1-1.5-17.1 1a8 8 0 0 0-3.7 6.3c0 1.6-.4 2-2 2.2-1.5.1-1.9-.2-2.3-2.1-.3-1.1-.5-1.5-2.3-3.9-2.5-3.4-4.4-4.8-7.5-5.6-.7-.2-1.4-.3-3-.2-2.3 0-3.4.2-6 1.2-5.3 1.9-10.3 6-12.8 10.3-2.5 4.1-2 9.1 1.4 14 2.4 3.7 6.2 6.4 12.5 9 1.7.8 2 .9 3 .9 1.4 0 2.2.5 2.7 1.5.4.7.4 1 .7 5.2.1 3.2.2 5.4 0 13.3 0 13.6-.3 20.9-1 27-.4 2.5-.4 2.3.6 3.4 1.8 1.8 4.3 3.1 7 3.5l1.4.2c.7.1 5 0 5.9-.2zm-17.6 78.3c-.2-.4-.7-.4-1.2-.6a493.5 493.5 0 0 1-36.6-8.7l-.9-.2-.4.5c-.3.3-.5.4-1 .4-.8 0-1.2-.5-1.3-1.7-.3-2-.1-12 .2-17.9.2-2.3.4-3.2.9-3.8.5-.5 1.7-.8 2.7-.7a221.4 221.4 0 0 1 37.7 9.8c1-.2 1.7.2 2.3 1.3l.3 1.2c0 .3 0 1.8.2 3.4.5 4.6.7 7.5.8 10.6.1 2.7 0 3-.2 4-.6 2-.4 2.7-2.2 2.7-1.2 0-1.2 0-1.3-.3zm0-6.2c0-4-.8-12.6-1-13l-6.5-2.2c-5.5-1.8-16.2-5-20.4-6l-6.5-1.5-3.5-.9-.1 8.3-.3 8.8v.4l1.2.2c3.6.5 19 3.8 24.8 5.3 3.8 1 11.6 3.6 12 4 .3-.2.3-3.4.3-3.5zm-5.4-.2a133.1 133.1 0 0 1 .6-6.9c0-.2 0-.2-.5.3-1 1-1.9 1.2-2.9.6-.6-.3-1-.8-1.4-1.8l-.3-.7-.1.5-.3 2c-.3 1.7-.7 3.1-1 3.4-.3.1-.4.1-.7-.1-.3-.2-.3-.3-.3-1.6 0-1.8.8-6.4 1.1-7 .3-.5.6-.7.9-.7.6 0 1 .5 1.7 2 .6 1.6 1 2.4 1.4 2.5.3.2 1.2-.8 2-2.2l.9-1.2c.5-.2 1 0 1.2.3a24.3 24.3 0 0 1-1.6 10.7c-.2.2-.6.1-.7 0zm-12.8-3.6c-1.8-.4-2.6-.9-2.4-1.4.1-.3.9-.5 1.5-.5.4 0 .5 0 .5-.2l.7-6c0-.6 0-.6-.5-.8-.8-.3-1-.6-1-1 .1-.6.8-.7 2.2-.6a6 6 0 0 1 3 1c.7.5 1.2 1.4 1.1 1.8-.1.5-.5.5-1.5 0-1.8-.6-1.6-.7-1.7.8l-.5 5c-.1.3 0 .4.8.6l1 .5c.3.2.3.7 0 .9-.1.2-2.1.2-3.2 0zm-7.1-1.7c-1-.1-1.8-.4-2.1-.7-.6-.6-.6-.8-.2-4 .5-4.6.7-6 1.2-6.2.4-.2.7 0 .8.3.2.4 0 2.7-.2 5.9l-.2 2.6h1.3c2 0 4.1.5 4.3 1 .2.5-.1.8-1 1-.6.1-2.8.2-4 0zm-9.5-1.7c-1.1-.5-1.6-1.8-1.6-4.1 0-3.6 1-6.6 2.5-7.6 1-.7 2.7-.4 3.4.7.3.5.3 1 0 1.4-.2.4-.7.4-1.1-.2-.8-.8-1.5-.5-2 .8-.8 1.7-1.2 5.8-.8 6.9.2.4.2.4.6.3a6 6 0 0 0 2.4-1.5l.5-.5-.8-.2c-1.3-.2-1.5-.9-.6-1.5.9-.5 2.5-.2 3.1.6.7.7.3 1.6-1.2 3-1.9 1.8-3.3 2.4-4.4 1.9z"/></svg>